<?xml version="1.0" encoding="UTF-8"?>
<svg width="638px" height="444px" viewBox="0 0 638 444" version="1.1" xmlns="http://www.w3.org/2000/svg" xmlns:xlink="http://www.w3.org/1999/xlink">
    <!-- Generator: Sketch 49.3 (51167) - http://www.bohemiancoding.com/sketch -->
    <title>extend-blog</title>
    <desc>Created with Sketch.</desc>
    <defs/>
    <g id="Page-1" stroke="none" stroke-width="1" fill="none" fill-rule="evenodd">
        <g id="extend-blog" transform="translate(1.000000, 1.000000)">
            <g id="Layer_4_copy_2" transform="translate(365.000000, 64.000000)" fill="#FFFFFF" fill-rule="nonzero" stroke="#3445DC" stroke-linecap="round" stroke-linejoin="round" stroke-width="2">
                <polygon id="Shape" points="0.3 68.7 0.3 59 102.3 0.1 260.5 91.5 260.5 101.4 158.5 159.5"/>
            </g>
            <g id="Layer_01_copy_2" transform="translate(365.000000, 64.000000)" stroke="#3445DC" stroke-linecap="round" stroke-linejoin="round">
                <polygon id="Shape" points="158.5 159.5 0.3 68.7 0.3 59 158.5 149.9"/>
                <polyline id="Shape" points="0.3 59 102.3 0.1 260.5 91.5 158.5 149.9 0.3 59"/>
                <polygon id="Shape" points="158.5 159.5 260.5 101.4 260.5 91.5 158.5 149.9"/>
                <path d="M34.3,59 L85.3,29.6" id="Shape"/>
                <path d="M51.3,68.9 L85.7,49" id="Shape"/>
                <path d="M102.1,98.3 L142.4,75" id="Shape"/>
                <path d="M119.3,108 L148.9,90.9" id="Shape"/>
                <path d="M110.3,102.8 L127.2,93.1" id="Shape"/>
                <path d="M42.3,63.9 L110.3,24.7" id="Shape"/>
                <path d="M68.3,78.6 L136.3,39.3" id="Shape"/>
                <path d="M59.8,73.8 L76.8,63.9" id="Shape"/>
            </g>
            <g id="Layer_10" transform="translate(369.000000, 43.000000)" fill="#FFFFFF" fill-rule="nonzero" stroke="#1806FF" stroke-linecap="round" stroke-linejoin="round" stroke-width="2">
                <polygon id="Shape" points="0.3 68.7 0.3 59 102.3 0.2 260.5 91.5 260.5 101.4 158.5 159.5"/>
            </g>
            <g id="Layer_01_copy" transform="translate(369.000000, 43.000000)" stroke="#3445DC" stroke-linecap="round" stroke-linejoin="round">
                <polygon id="Shape" points="158.5 159.5 0.3 68.7 0.3 59 158.5 149.9"/>
                <polyline id="Shape" points="0.3 59 102.3 0.2 260.5 91.5 158.5 149.9 0.3 59"/>
                <polygon id="Shape" points="158.5 159.5 260.5 101.4 260.5 91.5 158.5 149.9"/>
                <path d="M34.3,59 L85.3,29.6" id="Shape"/>
                <path d="M51.3,68.9 L85.7,49" id="Shape"/>
                <path d="M102.1,98.3 L142.4,75" id="Shape"/>
                <path d="M119.3,108 L148.9,90.9" id="Shape"/>
                <path d="M110.3,102.8 L127.2,93.1" id="Shape"/>
                <path d="M42.3,63.9 L110.3,24.7" id="Shape"/>
                <path d="M68.3,78.6 L136.3,39.3" id="Shape"/>
                <path d="M59.8,73.8 L76.8,63.9" id="Shape"/>
            </g>
            <g id="Layer_4" transform="translate(375.000000, 21.000000)" fill="#FFFFFF" fill-rule="nonzero" stroke="#3445DC" stroke-linecap="round" stroke-linejoin="round" stroke-width="2">
                <polygon id="Shape" points="0.3 68.7 0.3 59 102.3 0.2 260.5 91.5 260.5 101.4 158.5 159.6"/>
            </g>
            <g id="Layer_01" transform="translate(375.000000, 21.000000)">
                <polygon id="Shape" stroke="#3445DC" stroke-linecap="round" stroke-linejoin="round" points="158.5 159.6 0.3 68.7 0.3 59 158.5 149.9"/>
                <polyline id="Shape" stroke="#3445DC" stroke-linecap="round" stroke-linejoin="round" points="0.3 59 102.3 0.2 260.5 91.5 158.5 149.9 0.3 59"/>
                <polygon id="Shape" stroke="#3445DC" stroke-linecap="round" stroke-linejoin="round" points="158.5 159.6 260.5 101.4 260.5 91.5 158.5 149.9"/>
                <path d="M34.3,59 L85.3,29.6" id="Shape" stroke="#3445DC" stroke-linecap="round" stroke-linejoin="round"/>
                <path d="M51.3,68.9 L85.7,49" id="Shape" stroke="#3445DC" stroke-linecap="round" stroke-linejoin="round"/>
                <path d="M102.1,98.3 L142.4,75" id="Shape" stroke="#3445DC" stroke-linecap="round" stroke-linejoin="round"/>
                <path d="M119.3,108 L148.9,90.9" id="Shape" stroke="#3445DC" stroke-linecap="round" stroke-linejoin="round"/>
                <path d="M110.3,102.8 L127.2,93.1" id="Shape" stroke="#3445DC" stroke-linecap="round" stroke-linejoin="round"/>
                <path d="M42.3,63.9 L110.3,24.7" id="Shape" stroke="#3445DC" stroke-linecap="round" stroke-linejoin="round"/>
                <path d="M68.3,78.6 L136.3,39.3" id="Shape" stroke="#3445DC" stroke-linecap="round" stroke-linejoin="round"/>
                <path d="M59.8,74.8 L76.8,64.9" id="Shape" stroke="#3445DC" stroke-linecap="round" stroke-linejoin="round"/>
                <polyline id="Shape" points="158.5 159.6 158.5 149.9 260.5 91.5 260.5 101.4 158.5 159.6"/>
            </g>
            <g id="glasses" transform="translate(293.000000, 318.000000)" stroke="#000000" stroke-linecap="round" stroke-linejoin="round">
                <path d="M105.7,100.2 C105.7,100.2 130.4,86.2 138.3,82.1 C146.2,78 158.9,72.4 163.2,70.2 C167.5,68 172.6,65.6 176,63.9 C179.4,62.2 186.1,60.2 190.5,62.7 L192.7,64" id="Shape" fill="#FFFFFF" fill-rule="nonzero"/>
                <polygon id="Shape" fill="#FFFFFF" fill-rule="nonzero" points="108 101.5 105.7 100.2 105.5 104.7 107.7 106"/>
                <polygon id="Shape" fill="#FFFFFF" fill-rule="nonzero" points="2.8 40.8 0.5 39.5 0.3 44 2.6 45.3"/>
                <path d="M107.3,105.9 L107.3,102.4 C107.3,101.7 106.9,101 106.3,100.6 C104.5,99.4 100.3,95.9 93,88.9 C84.1,80.4 72.8,76 67.9,76.2 C65.5,76.2 63.2,76.7 61.1,77.7 C59.7,78.4 58.1,76.9 56.8,76 C55.5,75.1 54.7,74.6 53.8,74.1 C52.9,73.6 52.1,73.1 50.8,72.5 C49.5,71.9 47.9,71.5 46.5,69.2 C44.5,65.9 42.2,62.7 39.7,59.8 C34.7,53.8 23.5,45.2 14.6,43.5 C7.2,42.1 3,40.7 1.3,39.8 C1.1,39.7 0.8,39.7 0.6,39.8 L2.8,38.5 C3,38.4 3.3,38.4 3.5,38.5 C5.3,39.3 9.5,40.7 16.8,42.2 C25.7,44 36.9,52.6 41.9,58.5 C44.4,61.4 46.7,64.6 48.7,67.9 C50.1,70.2 51.7,70.6 53,71.2 C54.3,71.8 55.1,72.3 56,72.8 C56.9,73.3 57.7,73.8 59,74.7 C60.3,75.6 61.9,77.1 63.3,76.4 C65.4,75.3 67.7,74.8 70.1,74.9 C75.1,74.7 86.3,79 95.2,87.6 C102.6,94.7 106.8,98.1 108.5,99.3 C109.1,99.7 109.5,100.4 109.5,101.1 L109.5,104.6 C109.5,104.9 109.4,105.1 109.2,105.3 L107,106.6 C107.2,106.4 107.3,106.2 107.3,105.9 Z" id="Shape" fill="#FFFFFF" fill-rule="nonzero"/>
                <path d="M0.1,40.5 L0.1,44 C0.1,44.7 0.4,45.3 0.9,45.7 C4.9,49.1 4.9,51.5 4.9,51.5 C5.1,53.5 5.5,59.1 9.3,68.4 C13.9,79.8 20.9,85.9 24.8,88.5 C28.7,91.1 33.4,93.8 39.5,92.6 C45.6,91.4 47.9,82.6 49.1,79.9 C50.3,77.2 53.6,79.6 53.6,79.6 C55.8,80.8 57.4,82.8 58.1,85.1 C59.3,89.1 61.7,100.7 67.7,108.9 C73.7,117.1 78.4,119.8 82.4,121.7 C85.5,123.2 90.6,124.8 94.8,122.3 C96,121.6 97.1,120.6 97.9,119.5 C100.4,116.1 102,112 102.3,107.7 C102.3,107.7 102.3,105.2 106.3,106.4 C106.5,106.5 106.7,106.5 106.8,106.4 C107,106.2 107.1,106 107.1,105.7 L107.1,102.2 C107.1,101.5 106.7,100.8 106.1,100.4 C104.3,99.2 100.1,95.7 92.8,88.7 C83.9,80.2 72.6,75.8 67.7,76 C65.3,76 63,76.5 60.9,77.5 C59.5,78.2 57.9,76.7 56.6,75.8 C55.3,74.9 54.5,74.4 53.6,73.9 C52.7,73.4 51.9,72.9 50.6,72.3 C49.3,71.7 47.7,71.3 46.3,69 C44.3,65.7 42,62.5 39.5,59.6 C34.5,53.6 23.3,45 14.4,43.3 C7,41.9 2.8,40.5 1.1,39.6 C0.9,39.5 0.6,39.5 0.4,39.6 C0.3,40 0.1,40.3 0.1,40.5 Z M67,78.8 C72,77.3 80.7,81.7 87.7,86.8 C91.8,89.7 95,93.6 97.2,98.2 C103.5,114.5 93.8,124.8 85.1,120.4 C81.3,118.5 70.1,112.5 65.1,99.6 C58.9,83.9 62,80.3 67,78.8 Z M10.3,48 C10.3,48 12.8,44.6 19.8,47.5 C26.8,50.4 35.5,56.1 40.5,63.4 C45.5,70.7 48.2,77.4 42.5,86.6 C36.8,95.8 26.9,86.6 23.1,84.1 C14.3,78.4 4,57.1 10.3,48 Z" id="Shape" fill="#FFFFFF" fill-rule="nonzero"/>
                <path d="M201.6,69.9 C198.8,67.8 195.9,65.8 192.8,64 L192.6,63.9 L190.4,62.6 C186.1,60.1 179.3,62.1 175.9,63.8 C172.5,65.5 167.4,67.9 163.1,70.1 C158.8,72.3 146.1,78 138.2,82 C131.7,85.3 114.2,95.2 107.9,98.8 C103.4,95.3 99.2,91.5 95.1,87.5 C86.2,79 75,74.6 70,74.8 C67.6,74.8 65.3,75.3 63.2,76.3 C61.8,77 60.2,75.5 58.9,74.6 C57.6,73.7 56.7,73.2 55.9,72.7 C55.1,72.2 54.2,71.7 52.9,71.1 C51.6,70.5 50,70.1 48.6,67.8 C46.6,64.5 44.3,61.3 41.8,58.4 C36.8,52.4 25.6,43.8 16.7,42.1 C14.3,41.6 12.2,41.2 10.5,40.7 C12.3,39.7 14,38.8 15.5,38 C20.4,35.5 31.9,30.5 40.6,25.7 C49.3,20.9 55.6,17.1 67.2,10.4 C78.8,3.7 81.8,5.3 84.1,6.1 C86.4,6.9 92.4,14.1 93,14.7 C93.1,14.8 93.2,14.9 93.3,14.9 L93.6,15.1 C93.8,15.2 93.9,15.3 94.1,15.3 C94.3,15.4 94.5,15.4 94.7,15.4 C95,15.4 95.3,15.3 95.5,15.1 C95.6,15 95.8,14.8 95.9,14.7 C96.4,13.9 96.8,13 97,12.1 C97.2,11.2 97.5,9.8 96.4,9 C93.6,6.9 90.7,4.9 87.6,3.1 L87.5,3 L85.3,1.7 C81,-0.8 74.2,1.2 70.8,2.9 C67.4,4.6 62.3,7 58,9.2 C53.7,11.4 41,17.1 33.1,21.1 C25.2,25.1 0.5,39.2 0.5,39.2 L0.5,39.6 C0.3,39.8 0.2,40 0.2,40.3 L0.2,43.8 C0.2,44.5 0.5,45.1 1,45.5 C5,48.9 5,51.3 5,51.3 C5.2,53.3 5.6,58.9 9.4,68.2 C14,79.6 21,85.7 24.9,88.3 C28.8,90.9 33.5,93.6 39.6,92.4 C45.7,91.2 48,82.4 49.2,79.7 C50.4,77 53.7,79.4 53.7,79.4 C55.9,80.6 57.5,82.6 58.2,84.9 C59.4,88.9 61.8,100.5 67.8,108.7 C73.8,116.9 78.5,119.6 82.5,121.5 C85.6,123 90.7,124.6 94.9,122.1 C96.1,121.4 97.2,120.4 98,119.3 C100.5,115.9 102.1,111.8 102.4,107.5 C102.4,107.5 102.4,105 106.4,106.2 C106.6,106.3 106.8,106.3 106.9,106.2 C107,106.1 107.1,106 107.1,105.9 C107.1,106 107,106.1 106.9,106.2 L109.1,104.9 C109.2,104.9 109.2,104.8 109.3,104.7 C111.9,103.2 117,100.3 120.6,98.5 C125.5,96 137,91 145.7,86.2 C154.4,81.4 160.7,77.6 172.4,70.9 C184.1,64.2 186.8,65.8 189.1,66.6 C191.4,67.4 197.4,74.6 198,75.2 C198.1,75.3 198.2,75.4 198.3,75.4 C198.4,75.5 198.5,75.5 198.6,75.6 C198.8,75.7 198.9,75.8 199.1,75.8 C199.3,75.9 199.5,75.9 199.7,75.9 C200,75.9 200.3,75.8 200.5,75.6 C200.6,75.5 200.8,75.3 200.9,75.2 C201.4,74.4 201.8,73.5 202.1,72.6 C202.4,72.2 202.7,70.8 201.6,69.9 Z" id="Shape" stroke-width="1.5"/>
            </g>
            <g id="Coster" transform="translate(0.000000, 341.000000)" stroke="#3445DC" stroke-linecap="round" stroke-linejoin="round">
                <polygon id="Shape" fill="#FFFFFF" fill-rule="nonzero" points="0.3 49.1 85.3 98.2 85.3 92.6 0.3 43.5"/>
                <polygon id="Shape" fill="#FFFFFF" fill-rule="nonzero" points="85.3 98.2 85.3 92.6 159.1 49.9 159.1 55.5"/>
                <polygon id="Shape" fill="#FFFFFF" fill-rule="nonzero" points="0.3 43.5 85.3 92.6 159.1 49.9 75.4 0.2"/>
                <polygon id="Shape" stroke-width="1.5" points="0.3 49.1 0.3 43.5 75.4 0.2 159.1 49.9 159.1 55.5 85.3 98.2"/>
            </g>
            <g id="Cup" transform="translate(48.000000, 309.000000)">
                <path d="M50.7,5.4 C39.1,-1.3 20.4,-1.3 8.9,5.4 C3.1,8.7 0.2,13.1 0.2,17.5 C0.2,17.7 0.2,18 0.2,18.2 C0.3,19.3 6.7,80.3 6.7,80.3 C6.9,83.5 9.2,86.7 13.5,89.1 L13.9,89.3 C23,94.3 37.3,94.3 46.3,89.1 C50.5,86.6 52.8,83.5 53,80.3 C53,80.3 59.4,19.3 59.4,18.2 C59.7,13.6 56.8,9 50.7,5.4 Z" id="Shape" stroke="#3445DC" stroke-width="1.5" stroke-linecap="round" stroke-linejoin="round"/>
                <path d="M58.8,18.5 L0.8,18.4 L6.7,80.4 C6.9,83.6 9.2,86.8 13.5,89.2 L13.9,89.4 C23,94.4 37.3,94.4 46.3,89.2 C50.5,86.7 52.8,83.6 53,80.4 L58.8,18.5 Z" id="Shape" stroke="#3445DC" fill="#FFFFFF" fill-rule="nonzero" stroke-linecap="round" stroke-linejoin="round"/>
                <path d="M29.8,34.1 C22,34.1 14.6,32.3 9.1,29.2 C4,26.3 1,22.4 0.7,18.3 C0.7,18.1 0.7,17.8 0.7,17.6 C0.7,13.2 3.7,9.1 9.1,6 C14.5,2.9 22,1.1 29.8,1.1 C37.6,1.1 44.9,2.9 50.5,6 C56.2,9.3 59.2,13.8 58.9,18.4 C58.6,22.5 55.6,26.4 50.5,29.3 C44.9,32.4 37.6,34.1 29.8,34.1 Z" id="Shape" fill="#FFFFFF" fill-rule="nonzero"/>
                <path d="M29.8,0.4 L29.8,1.4 C37.5,1.4 44.8,3.1 50.2,6.3 C55.6,9.5 58.7,13.8 58.3,18.2 C58,22.1 55.1,25.9 50.2,28.7 C44.8,31.8 37.5,33.6 29.8,33.6 C22.1,33.6 14.8,31.9 9.4,28.7 C4.5,25.8 1.6,22.1 1.3,18.2 C1.3,18 1.3,17.8 1.3,17.5 C1.3,13.3 4.2,9.3 9.5,6.3 C14.9,3.2 22.2,1.4 29.9,1.4 L29.8,0.4 Z M29.8,0.4 C22.2,0.4 14.7,2.1 8.9,5.4 C3.1,8.7 0.2,13.1 0.2,17.5 C0.2,17.7 0.2,18 0.2,18.2 C0.5,22.3 3.4,26.4 8.8,29.5 C14.6,32.8 22.2,34.5 29.7,34.5 C37.2,34.5 44.8,32.8 50.6,29.5 C56,26.4 58.9,22.3 59.2,18.2 C59.5,13.6 56.7,8.9 50.6,5.4 C44.9,2.1 37.3,0.4 29.8,0.4 Z" id="Shape" fill="#1806FF" fill-rule="nonzero"/>
                <path d="M29.8,3.5 L29.8,4.5 C36.7,4.5 43.1,5.9 48,8.5 C52.9,11.1 55.4,14.5 55.2,18 C54.9,21.2 52.4,24.2 48,26.5 C43.2,29.1 36.7,30.5 29.8,30.5 C22.9,30.5 16.5,29.1 11.6,26.5 C7.2,24.2 4.7,21.2 4.4,18 C4.4,17.8 4.4,17.6 4.4,17.5 C4.4,14.1 7,10.9 11.6,8.5 C16.4,5.9 22.9,4.5 29.8,4.5 L29.8,3.5 Z M29.8,3.5 C23,3.5 16.3,4.9 11.2,7.6 C6.1,10.3 3.5,13.9 3.5,17.5 C3.5,17.7 3.5,17.9 3.5,18.1 C3.8,21.5 6.3,24.8 11.2,27.4 C16.3,30.1 23.1,31.5 29.8,31.5 C36.5,31.5 43.3,30.1 48.4,27.4 C53.3,24.8 55.8,21.5 56.1,18.1 C56.4,14.3 53.8,10.5 48.4,7.6 C43.3,4.9 36.5,3.5 29.8,3.5 Z" id="Shape" fill="#1806FF" fill-rule="nonzero"/>
                <path d="M56.1,19.1 C55.8,22.5 53.3,25.8 48.4,28.4 C38.1,33.9 21.4,33.9 11.1,28.4 C6.2,25.8 3.7,22.5 3.4,19.1 C3.4,18.9 3.4,18.7 3.4,18.5 C3.4,14.9 6,11.3 11.1,8.6 C21.4,3.1 38.1,3.1 48.4,8.6 C53.9,11.5 56.4,15.3 56.1,19.1 Z" id="Shape" fill="#3445DC" fill-rule="nonzero"/>
            </g>
            <g id="Laptop" transform="translate(68.000000, 0.000000)">
                <path d="M8.6,269.4 C8.6,269.5 8.6,269.6 8.6,269.7 C8.6,269.8 8.6,269.9 8.7,270 C8.7,270.1 8.7,270.2 8.8,270.3 C8.8,270.4 8.9,270.5 8.9,270.5 C8.9,270.6 9,270.7 9,270.8 C9,270.9 9.1,270.9 9.1,271 C9.1,271.1 9.2,271.2 9.3,271.3 L9.5,271.5 C9.6,271.6 9.8,271.8 9.9,272 L10.1,272.2 L10.4,272.4 L10.7,272.6 L11.1,272.8 C11.2,272.9 11.3,273 11.5,273 L128.2,341 C128.5,341.2 128.8,341.3 129.1,341.5 L129.4,341.6 C129.6,341.7 129.9,341.8 130.2,341.9 L130.5,342 L131,342.1 L131.4,342.2 L131.9,342.3 L132.3,342.4 C132.7,342.5 133.1,342.5 133.4,342.6 L133.8,342.6 L134.5,342.6 L135.9,342.6 L136.4,342.6 L136.9,342.6 L137.4,342.6 L137.9,342.5 C138.1,342.5 138.3,342.4 138.4,342.4 L138.8,342.3 L139.4,342.2 L139.8,342.1 C140.2,342 140.5,341.9 140.9,341.7 L141.4,341.5 L141.7,341.4 C141.9,341.3 142.2,341.2 142.4,341 L337.9,228.1 C339.9,227 340.8,225.5 340.8,224 L340.8,230.8 C340.8,232.3 339.8,233.8 337.9,234.9 L142.2,347.8 C142,347.9 141.7,348.1 141.5,348.2 L141.2,348.3 L140.7,348.5 C140.3,348.6 140,348.7 139.6,348.9 L139.5,348.9 L139.2,349 L138.6,349.1 L138.4,349.1 L138.2,349.1 L137.7,349.2 L137.5,349.2 L137.3,349.2 L136.8,349.2 L136.6,349.2 L136.4,349.2 L135.9,349.2 L134.5,349.2 L133.8,349.2 L133.5,349.2 L133.4,349.2 C133,349.2 132.6,349.1 132.3,349.1 L132.2,349.1 L131.9,349 L131.4,348.9 L131,348.8 L130.5,348.7 L130.4,348.7 L130.2,348.6 C129.9,348.5 129.7,348.4 129.4,348.3 L129.1,348.2 C128.8,348.1 128.5,347.9 128.2,347.7 L11.5,280.1 L11.4,280 C11.3,279.9 11.2,279.9 11.2,279.8 L10.8,279.6 L10.5,279.4 L10.2,279.2 L10.1,279.2 L10,279.1 C9.9,279 9.7,278.8 9.6,278.6 L9.5,278.5 L9.4,278.4 C9.3,278.3 9.2,278.2 9.2,278 L9.1,277.9 L9.1,277.8 C9,277.7 9,277.6 9,277.5 C9,277.4 8.9,277.4 8.9,277.3 C8.9,277.3 8.9,277.3 8.9,277.2 C8.9,277.1 8.8,277 8.8,276.9 C8.8,276.8 8.8,276.8 8.7,276.7 C8.7,276.7 8.7,276.7 8.7,276.6 C8.7,276.5 8.7,276.4 8.7,276.3 L8.7,276 L8.7,275.9 L8.7,269.1 C8.6,269.2 8.6,269.3 8.6,269.4 Z" id="Shape" stroke="#3445DC" fill="#FFFFFF" fill-rule="nonzero" stroke-linecap="round" stroke-linejoin="round"/>
                <path d="M11.5,265 L207,152.1 C211.4,149.9 216.6,149.9 221,152.1 L337.8,220 C341.7,222.2 341.6,225.9 337.8,228.1 L142.2,341 C137.8,343.2 132.6,343.2 128.2,341 L11.5,273.2 C7.6,270.9 7.6,267.3 11.5,265 Z" id="Shape" stroke="#3445DC" fill="#FFFFFF" fill-rule="nonzero" stroke-linecap="round" stroke-linejoin="round"/>
                <path d="M0.6,125.3 C0.6,125.2 0.6,125.1 0.6,125 C0.6,124.9 0.6,124.9 0.6,124.8 L0.6,124.7 C0.6,124.7 0.6,124.6 0.6,124.6 C0.6,124.5 0.6,124.4 0.6,124.2 C0.6,124 0.6,124 0.6,123.8 L0.7,123.5 C0.7,123.4 0.8,123.3 0.8,123.1 L0.8,123 C0.8,122.9 0.8,122.9 0.8,122.8 L0.9,122.4 C0.9,122.3 0.9,122.2 1,122.1 L1,122 C1,121.9 1.1,121.8 1.1,121.6 L1.2,121.2 L1.2,121.1 L1.2,121 L1.3,120.8 C1.3,120.7 1.4,120.6 1.4,120.5 L1.5,120.3 L1.5,120.2 L2,119.8 L2.2,119.4 L2.2,119.3 C2.2,119.3 2.2,119.3 2.2,119.2 L2.3,118.9 C2.4,118.8 2.4,118.7 2.5,118.5 L2.6,118.3 C2.6,118.3 2.6,118.3 2.6,118.2 L2.8,117.9 C2.9,117.8 3,117.6 3.1,117.5 C3.1,117.5 3.1,117.5 3.1,117.4 L3.5,116.8 L3.8,116.4 C3.9,116.3 4,116.2 4.1,116.1 L4.4,115.8 L4.7,115.5 L4.8,115.5 L4.8,115.4 C4.9,115.3 4.9,115.3 5,115.2 C5.1,115.1 5.2,115 5.3,114.9 L5.4,114.8 L5.5,114.7 L5.6,114.6 L5.9,114.3 L6,114.2 L6.1,114.1 L6.2,114 L6.5,113.8 L6.7,113.6 L7,113.4 L7.3,113.2 L7.4,113.2 L201.9,1.4 L202.1,1.3 L202.2,1.3 L202.3,1.2 L202.4,1.1 L202.5,1 L202.6,0.9 L202.9,0.8 L203.2,0.7 L203.3,0.7 L203.4,0.7 L203.5,0.7 L203.6,0.7 L203.7,0.7 L203.8,0.7 L203.9,0.7 L204,0.7 L204.1,0.7 L204.2,0.7 L204.4,0.7 L204.5,0.7 L205.3,0.7 L205.6,0.7 C205.7,0.7 205.9,0.8 206,0.8 L206.1,0.8 L206.3,0.9 L206.4,0.9 L206.7,1 L209.6,2.7 C209.5,2.7 209.4,2.6 209.3,2.6 L209.2,2.6 L209,2.5 C208.9,2.4 208.7,2.4 208.6,2.4 L208.3,2.4 L207.4,2.4 L207.2,2.4 L207,2.4 L206.8,2.4 L206.7,2.4 L206.5,2.4 L206.4,2.4 L206.2,2.5 L206.1,2.5 L205.8,2.6 L205.5,2.7 L205.4,2.7 L205.2,2.8 L205,3 L204.7,3.2 L10.5,115.2 C10.3,115.3 10,115.5 9.8,115.6 C9.6,115.7 9.4,115.9 9.2,116.1 L9.1,116.2 C8.9,116.4 8.7,116.5 8.5,116.7 L8.4,116.8 C8.2,117 8,117.2 7.8,117.4 L7.8,117.5 C7.6,117.7 7.4,117.9 7.2,118.2 C7,118.4 6.8,118.7 6.6,118.9 C6.4,119.1 6.3,119.4 6.1,119.6 C5.9,119.8 5.9,119.9 5.8,120 L5.6,120.4 L5.5,120.6 C5.4,120.8 5.3,121 5.1,121.2 L5.1,121.3 C5,121.6 4.8,121.8 4.7,122.1 C4.6,122.4 4.5,122.6 4.4,122.9 L4.4,123 C4.3,123.3 4.2,123.6 4.1,123.8 C4,124.1 4,124.3 3.9,124.6 L3.9,124.7 C3.8,125 3.8,125.3 3.7,125.5 C3.7,125.8 3.6,126.1 3.6,126.3 L3.6,126.4 C3.6,126.7 3.6,126.9 3.6,127.2 L4,261.4 C4,261.7 4,261.9 4,262.2 L4,262.3 C4,262.5 4,262.7 4.1,262.9 C4.1,262.9 4.1,263 4.1,263 C4.1,263.2 4.2,263.4 4.2,263.6 C4.2,263.6 4.2,263.7 4.2,263.7 C4.3,263.9 4.3,264 4.4,264.2 C4.4,264.2 4.4,264.2 4.4,264.3 C4.5,264.5 4.6,264.7 4.7,264.8 L4.7,264.9 C4.8,265 4.9,265.1 5,265.3 C5,265.3 5.1,265.4 5.1,265.4 C5.2,265.5 5.3,265.6 5.4,265.7 L5.5,265.8 C5.6,265.9 5.8,266 5.9,266.1 L3,264.4 C2.9,264.3 2.7,264.2 2.6,264.1 L2.5,264 C2.4,263.9 2.3,263.8 2.2,263.8 L2.1,263.7 C2,263.6 1.9,263.5 1.8,263.3 L1.7,263.2 C1.6,263 1.5,262.9 1.4,262.7 C1.4,262.7 1.4,262.7 1.4,262.7 L1.3,262.4 C1.3,262.3 1.3,262.3 1.2,262.2 C1.2,262.2 1.2,262.1 1.2,262.1 L1.2,262 L1.1,261.6 L1.1,261.5 L1.1,261.4 C1.1,261.4 1.1,261.3 1.1,261.3 C1.1,261.2 1.1,261.1 1,261 C0.9,260.9 1,260.9 1,260.8 C1,260.7 1,260.8 1,260.7 C1,260.7 1,260.6 1,260.6 C1,260.5 1,260.4 1,260.3 L1,259.9 L0.6,125.8 L0.6,125.3 Z" id="Shape" stroke="#3445DC" fill="#FFFFFF" fill-rule="nonzero" stroke-linecap="round" stroke-linejoin="round"/>
                <path d="M10.5,115.2 L204.8,3.1 C208.7,0.9 211.8,2.7 211.8,7.1 L212.2,141.2 C211.9,146.1 209.3,150.6 205.2,153.3 L10.9,265.5 C7,267.7 3.9,265.9 3.9,261.5 L3.5,127.4 C3.8,122.4 6.4,117.9 10.5,115.2 Z" id="Shape" stroke="#3445DC" fill="#FFFFFF" fill-rule="nonzero" stroke-linecap="round" stroke-linejoin="round"/>
                <path d="M105.9,313.9 C108.3,315.3 113.1,314.8 116.6,312.8 L290,212.7 C293.5,210.7 294.3,207.9 291.8,206.5 L218.1,164 C215.6,162.6 210.9,163.1 207.4,165.1 L34,265.1 C30.6,267.1 29.7,269.9 32.2,271.3 L105.9,313.9 Z" id="Shape" stroke="#3445DC" fill="#FFFFFF" fill-rule="nonzero" stroke-linecap="round" stroke-linejoin="round"/>
                <path d="M209.3,297.9 C210.3,298.3 211.5,298.2 212.5,297.6 L263.7,268 C264.7,267.4 264.9,266.6 264.2,266.2 L234.4,249 C233.4,248.6 232.2,248.7 231.2,249.3 L180,278.9 C179,279.5 178.8,280.3 179.5,280.7 L209.3,297.9 Z" id="Shape" stroke="#3445DC" stroke-linecap="round" stroke-linejoin="round"/>
                <path d="M212.4,177.4 C213.5,177.9 214.7,177.9 215.7,177.4 L224.1,172.6 C224.6,172.5 224.9,171.9 224.8,171.4 C224.7,171.1 224.4,170.8 224.1,170.7 L215.7,165.9 C214.6,165.4 213.4,165.4 212.4,165.9 L204,170.7 C203.5,170.8 203.2,171.4 203.3,171.9 C203.4,172.2 203.7,172.5 204,172.6 L212.4,177.4 Z" id="Shape" stroke="#3445DC" fill="#FFFFFF" fill-rule="nonzero" stroke-linecap="round" stroke-linejoin="round"/>
                <path d="M219.2,191 C220.2,191.5 221.5,191.5 222.5,191 L239.3,181.4 C239.8,181.2 240.1,180.7 240,180.2 C239.9,179.9 239.6,179.6 239.3,179.5 L230.9,174.7 C229.8,174.2 228.6,174.2 227.6,174.7 L210.8,184.3 C210.3,184.4 210,185 210.1,185.5 C210.2,185.8 210.5,186.1 210.8,186.2 L219.2,191 Z" id="Shape" stroke="#3445DC" fill="#FFFFFF" fill-rule="nonzero" stroke-linecap="round" stroke-linejoin="round"/>
                <path d="M260.6,219.3 C261.7,219.8 262.9,219.8 263.9,219.3 L283.8,207.7 C284.3,207.6 284.6,207 284.5,206.5 C284.4,206.2 284.1,205.9 283.8,205.8 L275.4,201 C274.3,200.5 273.1,200.5 272.1,201 L252.2,212.6 C251.7,212.8 251.4,213.3 251.5,213.8 C251.6,214.1 251.9,214.4 252.2,214.5 L260.6,219.3 Z" id="Shape" stroke="#3445DC" fill="#FFFFFF" fill-rule="nonzero" stroke-linecap="round" stroke-linejoin="round"/>
                <path d="M106.4,308.4 C107.5,308.9 108.7,308.9 109.7,308.4 L129.6,296.8 C130.1,296.7 130.4,296.1 130.3,295.6 C130.2,295.3 129.9,295 129.6,294.9 L121.2,290.1 C120.1,289.6 118.9,289.6 117.9,290.1 L98,301.7 C97.5,301.9 97.2,302.4 97.3,302.9 C97.4,303.2 97.7,303.5 98,303.6 L106.4,308.4 Z" id="Shape" stroke="#3445DC" fill="#FFFFFF" fill-rule="nonzero" stroke-linecap="round" stroke-linejoin="round"/>
                <path d="M236.9,215.3 C237.9,215.8 239.2,215.8 240.2,215.3 L269.4,198.5 C269.9,198.3 270.2,197.8 270.1,197.3 C270,197 269.7,196.7 269.4,196.6 L261,191.8 C259.9,191.3 258.7,191.3 257.7,191.8 L228.5,208.6 C228,208.7 227.7,209.3 227.8,209.8 C227.9,210.1 228.2,210.4 228.5,210.5 L236.9,215.3 Z" id="Shape" stroke="#3445DC" fill="#FFFFFF" fill-rule="nonzero" stroke-linecap="round" stroke-linejoin="round"/>
                <path d="M91.8,299.6 C92.9,300.1 94.1,300.1 95.1,299.6 L124.3,282.8 C124.8,282.7 125.1,282.1 125,281.6 C124.9,281.3 124.6,281 124.3,280.9 L115.9,276.1 C114.9,275.6 113.6,275.6 112.6,276.1 L83.4,292.9 C82.9,293 82.6,293.6 82.7,294.1 C82.8,294.4 83.1,294.7 83.4,294.8 L91.8,299.6 Z" id="Shape" stroke="#3445DC" fill="#FFFFFF" fill-rule="nonzero" stroke-linecap="round" stroke-linejoin="round"/>
                <path d="M61.4,281.8 C62.5,282.3 63.7,282.3 64.7,281.8 L81.5,272.2 C82,272.1 82.3,271.5 82.2,271 C82.1,270.7 81.8,270.4 81.5,270.3 L73.1,265.5 C72,265 70.8,265 69.8,265.5 L53,275 C52.5,275.1 52.2,275.7 52.3,276.2 C52.4,276.5 52.7,276.8 53,276.9 L61.4,281.8 Z" id="Shape" stroke="#3445DC" fill="#FFFFFF" fill-rule="nonzero" stroke-linecap="round" stroke-linejoin="round"/>
                <path d="M198.5,185.4 C199.6,185.9 200.8,185.9 201.8,185.4 L210.2,180.6 C210.7,180.5 211,179.9 210.9,179.4 C210.8,179.1 210.5,178.8 210.2,178.7 L201.8,173.9 C200.7,173.4 199.5,173.4 198.5,173.9 L190.1,178.7 C189.6,178.8 189.3,179.4 189.4,179.9 C189.5,180.2 189.8,180.5 190.1,180.6 L198.5,185.4 Z" id="Shape" stroke="#3445DC" fill="#FFFFFF" fill-rule="nonzero" stroke-linecap="round" stroke-linejoin="round"/>
                <path d="M205.8,198.6 C206.8,199.1 208.1,199.1 209.1,198.6 L217.5,193.8 C218,193.6 218.3,193.1 218.2,192.6 C218.1,192.3 217.8,192 217.5,191.9 L209.1,187.1 C208.1,186.6 206.8,186.6 205.8,187.1 L197.4,191.9 C196.9,192.1 196.6,192.6 196.7,193.1 C196.8,193.4 197.1,193.7 197.4,193.8 L205.8,198.6 Z" id="Shape" stroke="#3445DC" fill="#FFFFFF" fill-rule="nonzero" stroke-linecap="round" stroke-linejoin="round"/>
                <path d="M191.9,206.4 C193,206.9 194.2,206.9 195.2,206.4 L203.6,201.6 C204.1,201.4 204.4,200.9 204.3,200.4 C204.2,200.1 203.9,199.8 203.6,199.7 L195.2,194.9 C194.1,194.4 192.9,194.4 191.9,194.9 L183.5,199.7 C183,199.9 182.7,200.4 182.8,200.9 C182.9,201.2 183.2,201.5 183.5,201.6 L191.9,206.4 Z" id="Shape" stroke="#3445DC" fill="#FFFFFF" fill-rule="nonzero" stroke-linecap="round" stroke-linejoin="round"/>
                <path d="M177.9,214.5 C179,215 180.2,215 181.2,214.5 L189.6,209.7 C190.1,209.6 190.4,209 190.3,208.5 C190.2,208.2 189.9,207.9 189.6,207.8 L181.2,203 C180.1,202.5 178.9,202.5 177.9,203 L169.5,207.8 C169,207.9 168.7,208.5 168.8,209 C168.9,209.3 169.2,209.6 169.5,209.7 L177.9,214.5 Z" id="Shape" stroke="#3445DC" fill="#FFFFFF" fill-rule="nonzero" stroke-linecap="round" stroke-linejoin="round"/>
                <path d="M163.9,222.7 C164.9,223.2 166.2,223.2 167.2,222.7 L175.6,217.9 C176.1,217.7 176.4,217.2 176.3,216.7 C176.2,216.4 175.9,216.1 175.6,216 L167.2,211.2 C166.2,210.7 164.9,210.7 163.9,211.2 L155.5,216.1 C155,216.3 154.7,216.8 154.8,217.3 C154.9,217.6 155.2,217.9 155.5,218 L163.9,222.7 Z" id="Shape" stroke="#3445DC" fill="#FFFFFF" fill-rule="nonzero" stroke-linecap="round" stroke-linejoin="round"/>
                <path d="M150.7,230.6 C151.7,231.1 153,231.1 154,230.6 L162.4,225.8 C162.9,225.7 163.2,225.1 163.1,224.6 C163,224.3 162.7,224 162.4,223.9 L154,219.1 C153,218.6 151.7,218.6 150.7,219.1 L142.3,223.9 C141.8,224 141.5,224.6 141.6,225.1 C141.7,225.4 142,225.7 142.3,225.8 L150.7,230.6 Z" id="Shape" stroke="#3445DC" fill="#FFFFFF" fill-rule="nonzero" stroke-linecap="round" stroke-linejoin="round"/>
                <path d="M137.5,238.2 C138.6,238.7 139.8,238.7 140.8,238.2 L149.2,233.4 C149.7,233.3 150,232.7 149.9,232.2 C149.8,231.9 149.5,231.6 149.2,231.5 L140.8,226.7 C139.7,226.2 138.5,226.2 137.5,226.7 L129.1,231.5 C128.6,231.6 128.3,232.2 128.4,232.7 C128.5,233 128.8,233.3 129.1,233.4 L137.5,238.2 Z" id="Shape" stroke="#3445DC" fill="#FFFFFF" fill-rule="nonzero" stroke-linecap="round" stroke-linejoin="round"/>
                <path d="M124.4,245.9 C125.4,246.4 126.7,246.4 127.7,245.9 L136.1,241.1 C136.6,240.9 136.9,240.4 136.8,239.9 C136.7,239.6 136.4,239.3 136.1,239.2 L127.7,234.4 C126.7,233.9 125.4,233.9 124.4,234.4 L116,239.2 C115.5,239.4 115.2,239.9 115.3,240.4 C115.4,240.7 115.7,241 116,241.1 L124.4,245.9 Z" id="Shape" stroke="#3445DC" fill="#FFFFFF" fill-rule="nonzero" stroke-linecap="round" stroke-linejoin="round"/>
                <path d="M110.4,253.5 C111.5,254 112.7,254 113.7,253.5 L122.1,248.7 C122.6,248.5 122.9,248 122.8,247.5 C122.7,247.2 122.4,246.9 122.1,246.8 L113.7,242 C112.6,241.5 111.4,241.5 110.4,242 L102,246.8 C101.5,247 101.2,247.5 101.3,248 C101.4,248.3 101.7,248.6 102,248.7 L110.4,253.5 Z" id="Shape" stroke="#3445DC" fill="#FFFFFF" fill-rule="nonzero" stroke-linecap="round" stroke-linejoin="round"/>
                <path d="M96.7,261.5 C97.7,262 99,262 100,261.5 L108.4,256.7 C108.9,256.6 109.2,256 109.1,255.5 C109,255.2 108.7,254.9 108.4,254.8 L100,250 C99,249.5 97.7,249.5 96.7,250 L88.3,254.8 C87.8,254.9 87.5,255.5 87.6,256 C87.7,256.3 88,256.6 88.3,256.7 L96.7,261.5 Z" id="Shape" stroke="#3445DC" fill="#FFFFFF" fill-rule="nonzero" stroke-linecap="round" stroke-linejoin="round"/>
                <path d="M83.2,269.5 C84.3,270 85.5,270 86.5,269.5 L94.9,264.7 C95.4,264.6 95.7,264 95.6,263.5 C95.5,263.2 95.2,262.9 94.9,262.8 L86.5,258 C85.4,257.5 84.2,257.5 83.2,258 L74.8,262.8 C74.3,262.9 74,263.5 74.1,264 C74.2,264.3 74.5,264.6 74.8,264.7 L83.2,269.5 Z" id="Shape" stroke="#3445DC" fill="#FFFFFF" fill-rule="nonzero" stroke-linecap="round" stroke-linejoin="round"/>
                <path d="M184.5,193.5 C185.6,194 186.8,194 187.8,193.5 L196.2,188.7 C196.7,188.5 197,188 196.9,187.5 C196.8,187.2 196.5,186.9 196.2,186.8 L187.8,182 C186.7,181.5 185.5,181.5 184.5,182 L176.1,186.8 C175.6,187 175.3,187.5 175.4,188 C175.5,188.3 175.8,188.6 176.1,188.7 L184.5,193.5 Z" id="Shape" stroke="#3445DC" fill="#FFFFFF" fill-rule="nonzero" stroke-linecap="round" stroke-linejoin="round"/>
                <path d="M170.6,201.5 C171.7,202 172.9,202 173.9,201.5 L182.3,196.7 C182.8,196.6 183.1,196 183,195.5 C182.9,195.2 182.6,194.9 182.3,194.8 L173.9,190 C172.8,189.5 171.6,189.5 170.6,190 L162.2,194.8 C161.7,194.9 161.4,195.5 161.5,196 C161.6,196.3 161.9,196.6 162.2,196.7 L170.6,201.5 Z" id="Shape" stroke="#3445DC" fill="#FFFFFF" fill-rule="nonzero" stroke-linecap="round" stroke-linejoin="round"/>
                <path d="M156.6,209.6 C157.7,210.1 158.9,210.1 159.9,209.6 L168.3,204.8 C168.8,204.7 169.1,204.1 169,203.6 C168.9,203.3 168.6,203 168.3,202.9 L160,198 C158.9,197.5 157.7,197.5 156.7,198 L148.3,202.8 C147.8,202.9 147.5,203.5 147.6,204 C147.7,204.3 148,204.6 148.3,204.7 L156.6,209.6 Z" id="Shape" stroke="#3445DC" fill="#FFFFFF" fill-rule="nonzero" stroke-linecap="round" stroke-linejoin="round"/>
                <path d="M142.7,217.6 C143.8,218.1 145,218.1 146,217.6 L154.4,212.8 C154.9,212.7 155.2,212.1 155.1,211.6 C155,211.3 154.7,211 154.4,210.9 L146,206 C144.9,205.5 143.7,205.5 142.7,206 L134.3,210.8 C133.8,210.9 133.5,211.5 133.6,212 C133.7,212.3 134,212.6 134.3,212.7 L142.7,217.6 Z" id="Shape" stroke="#3445DC" fill="#FFFFFF" fill-rule="nonzero" stroke-linecap="round" stroke-linejoin="round"/>
                <path d="M128.8,225.7 C129.8,226.2 131.1,226.2 132.1,225.7 L140.5,220.9 C141,220.7 141.3,220.2 141.2,219.7 C141.1,219.4 140.8,219.1 140.5,219 L132.1,214.2 C131.1,213.7 129.8,213.7 128.8,214.2 L120.4,219 C119.9,219.2 119.6,219.7 119.7,220.2 C119.8,220.5 120.1,220.8 120.4,220.9 L128.8,225.7 Z" id="Shape" stroke="#3445DC" fill="#FFFFFF" fill-rule="nonzero" stroke-linecap="round" stroke-linejoin="round"/>
                <path d="M114.8,233.7 C115.8,234.2 117.1,234.2 118.1,233.7 L126.5,228.9 C127,228.7 127.3,228.2 127.2,227.7 C127.1,227.4 126.8,227.1 126.5,227 L118.1,222.2 C117.1,221.7 115.8,221.7 114.8,222.2 L106.4,227.1 C105.9,227.3 105.6,227.8 105.7,228.3 C105.8,228.6 106.1,228.9 106.4,229 L114.8,233.7 Z" id="Shape" stroke="#3445DC" fill="#FFFFFF" fill-rule="nonzero" stroke-linecap="round" stroke-linejoin="round"/>
                <path d="M100.9,241.8 C101.9,242.3 103.2,242.3 104.2,241.8 L112.6,237 C113.1,236.9 113.4,236.3 113.3,235.8 C113.2,235.5 112.9,235.2 112.6,235.1 L104.2,230.3 C103.2,229.8 101.9,229.8 100.9,230.3 L92.5,235.1 C92,235.2 91.7,235.8 91.8,236.3 C91.9,236.6 92.2,236.9 92.5,237 L100.9,241.8 Z" id="Shape" stroke="#3445DC" fill="#FFFFFF" fill-rule="nonzero" stroke-linecap="round" stroke-linejoin="round"/>
                <path d="M87,249.8 C88,250.3 89.3,250.3 90.3,249.8 L98.7,245 C99.2,244.9 99.5,244.3 99.4,243.8 C99.3,243.5 99,243.2 98.7,243.1 L90.3,238.3 C89.3,237.8 88,237.8 87,238.3 L78.6,243.1 C78.1,243.2 77.8,243.8 77.9,244.3 C78,244.6 78.3,244.9 78.6,245 L87,249.8 Z" id="Shape" stroke="#3445DC" fill="#FFFFFF" fill-rule="nonzero" stroke-linecap="round" stroke-linejoin="round"/>
                <path d="M73,257.9 C74,258.4 75.3,258.4 76.3,257.9 L84.7,253.1 C85.2,252.9 85.5,252.4 85.4,251.9 C85.3,251.6 85,251.3 84.7,251.2 L76.3,246.4 C75.3,245.9 74,245.9 73,246.4 L64.6,251.2 C64.1,251.4 63.8,251.9 63.9,252.4 C64,252.7 64.3,253 64.6,253.1 L73,257.9 Z" id="Shape" stroke="#3445DC" fill="#FFFFFF" fill-rule="nonzero" stroke-linecap="round" stroke-linejoin="round"/>
                <path d="M59.1,265.9 C60.2,266.4 61.4,266.4 62.4,265.9 L70.8,261.1 C71.3,260.9 71.6,260.4 71.5,259.9 C71.4,259.6 71.1,259.3 70.8,259.2 L62.4,254.4 C61.3,253.9 60.1,253.9 59.1,254.4 L50.7,259.2 C50.2,259.4 49.9,259.9 50,260.4 C50.1,260.7 50.4,261 50.7,261.1 L59.1,265.9 Z" id="Shape" stroke="#3445DC" fill="#FFFFFF" fill-rule="nonzero" stroke-linecap="round" stroke-linejoin="round"/>
                <path d="M45.1,274 C46.2,274.5 47.4,274.5 48.4,274 L56.8,269.2 C57.3,269.1 57.6,268.5 57.5,268 C57.4,267.7 57.1,267.4 56.8,267.3 L48.4,262.5 C47.3,262 46.1,262 45.1,262.5 L36.7,267.3 C36.2,267.4 35.9,268 36,268.5 C36.1,268.8 36.4,269.1 36.7,269.2 L45.1,274 Z" id="Shape" stroke="#3445DC" fill="#FFFFFF" fill-rule="nonzero" stroke-linecap="round" stroke-linejoin="round"/>
                <path d="M242.9,194.5 C243.9,195 245.2,195 246.2,194.5 L254.6,189.7 C255.1,189.6 255.4,189 255.3,188.5 C255.2,188.2 254.9,187.9 254.6,187.8 L246.2,183 C245.2,182.5 243.9,182.5 242.9,183 L234.5,187.8 C234,187.9 233.7,188.5 233.8,189 C233.9,189.3 234.2,189.6 234.5,189.7 L242.9,194.5 Z" id="Shape" stroke="#3445DC" fill="#FFFFFF" fill-rule="nonzero" stroke-linecap="round" stroke-linejoin="round"/>
                <path d="M229,202.6 C230,203.1 231.3,203.1 232.3,202.6 L240.7,197.8 C241.2,197.7 241.5,197.1 241.4,196.6 C241.3,196.3 241,196 240.7,195.9 L232.3,191.1 C231.3,190.6 230,190.6 229,191.1 L220.6,195.9 C220.1,196 219.8,196.6 219.9,197.1 C220,197.4 220.3,197.7 220.6,197.8 L229,202.6 Z" id="Shape" stroke="#3445DC" fill="#FFFFFF" fill-rule="nonzero" stroke-linecap="round" stroke-linejoin="round"/>
                <path d="M215,210.6 C216.1,211.1 217.3,211.1 218.3,210.6 L226.7,205.8 C227.2,205.7 227.5,205.1 227.4,204.6 C227.3,204.3 227,204 226.7,203.9 L218.4,199 C217.3,198.5 216.1,198.5 215.1,199 L206.7,203.8 C206.2,203.9 205.9,204.5 206,205 C206.1,205.3 206.4,205.6 206.7,205.7 L215,210.6 Z" id="Shape" stroke="#3445DC" fill="#FFFFFF" fill-rule="nonzero" stroke-linecap="round" stroke-linejoin="round"/>
                <path d="M223,224.1 C224.1,224.6 225.3,224.6 226.3,224.1 L234.7,219.3 C235.2,219.1 235.5,218.6 235.4,218.1 C235.3,217.8 235,217.5 234.7,217.4 L226.3,212.6 C225.2,212.1 224,212.1 223,212.6 L214.6,217.4 C214.1,217.6 213.8,218.1 213.9,218.6 C214,218.9 214.3,219.2 214.6,219.3 L223,224.1 Z" id="Shape" stroke="#3445DC" fill="#FFFFFF" fill-rule="nonzero" stroke-linecap="round" stroke-linejoin="round"/>
                <path d="M246.4,227.7 C247.5,228.2 248.7,228.2 249.7,227.7 L258.1,222.9 C258.6,222.7 258.9,222.2 258.8,221.7 C258.7,221.4 258.4,221.1 258.1,221 L249.7,216.2 C248.6,215.7 247.4,215.7 246.4,216.2 L238,221 C237.5,221.2 237.2,221.7 237.3,222.2 C237.4,222.5 237.7,222.8 238,222.9 L246.4,227.7 Z" id="Shape" stroke="#3445DC" fill="#FFFFFF" fill-rule="nonzero" stroke-linecap="round" stroke-linejoin="round"/>
                <path d="M232.3,235.9 C233.3,236.4 234.6,236.4 235.6,235.9 L244,231 C244.5,230.9 244.8,230.3 244.7,229.8 C244.6,229.5 244.3,229.2 244,229.1 L235.6,224.3 C234.6,223.8 233.3,223.8 232.3,224.3 L223.9,229.1 C223.4,229.2 223.1,229.8 223.2,230.3 C223.3,230.6 223.6,230.9 223.9,231 L232.3,235.9 Z" id="Shape" stroke="#3445DC" fill="#FFFFFF" fill-rule="nonzero" stroke-linecap="round" stroke-linejoin="round"/>
                <path d="M147,284.7 C148,285.2 149.3,285.2 150.3,284.7 L158.7,279.9 C159.2,279.8 159.5,279.2 159.4,278.7 C159.3,278.4 159,278.1 158.7,278 L150.3,273.2 C149.3,272.7 148,272.7 147,273.2 L138.6,278 C138.1,278.1 137.8,278.7 137.9,279.2 C138,279.5 138.3,279.8 138.6,279.9 L147,284.7 Z" id="Shape" stroke="#3445DC" fill="#FFFFFF" fill-rule="nonzero" stroke-linecap="round" stroke-linejoin="round"/>
                <path d="M133,292.8 C134.1,293.3 135.3,293.3 136.3,292.8 L144.7,288 C145.2,287.9 145.5,287.3 145.4,286.8 C145.3,286.5 145,286.2 144.7,286.1 L136.3,281.3 C135.2,280.8 134,280.8 133,281.3 L124.6,286.1 C124.1,286.2 123.8,286.8 123.9,287.3 C124,287.6 124.3,287.9 124.6,288 L133,292.8 Z" id="Shape" stroke="#3445DC" fill="#FFFFFF" fill-rule="nonzero" stroke-linecap="round" stroke-linejoin="round"/>
                <path d="M209.4,231.6 C210.5,232.1 211.7,232.1 212.7,231.6 L221.1,226.8 C221.6,226.7 221.9,226.1 221.8,225.6 C221.7,225.3 221.4,225 221.1,224.9 L212.7,220.1 C211.6,219.6 210.4,219.6 209.4,220.1 L201,224.9 C200.5,225 200.2,225.6 200.3,226.1 C200.4,226.4 200.7,226.7 201,226.8 L209.4,231.6 Z" id="Shape" stroke="#3445DC" fill="#FFFFFF" fill-rule="nonzero" stroke-linecap="round" stroke-linejoin="round"/>
                <path d="M161.4,276.7 C162.4,277.2 163.7,277.2 164.7,276.7 L229.8,239.1 C230.3,239 230.6,238.4 230.5,237.9 C230.4,237.6 230.1,237.3 229.8,237.2 L221.4,232.4 C220.4,231.9 219.1,231.9 218.1,232.4 L153.1,270 C152.6,270.2 152.3,270.7 152.4,271.2 C152.5,271.5 152.8,271.8 153.1,271.9 L161.4,276.7 Z" id="Shape" stroke="#3445DC" fill="#FFFFFF" fill-rule="nonzero" stroke-linecap="round" stroke-linejoin="round"/>
                <path d="M195.4,239.7 C196.4,240.2 197.7,240.2 198.7,239.7 L207.1,234.9 C207.6,234.7 207.9,234.2 207.8,233.7 C207.7,233.4 207.4,233.1 207.1,233 L198.7,228.2 C197.7,227.7 196.4,227.7 195.4,228.2 L187,233 C186.5,233.2 186.2,233.7 186.3,234.2 C186.4,234.5 186.7,234.8 187,234.9 L195.4,239.7 Z" id="Shape" stroke="#3445DC" fill="#FFFFFF" fill-rule="nonzero" stroke-linecap="round" stroke-linejoin="round"/>
                <path d="M181.4,247.8 C182.5,248.3 183.7,248.3 184.7,247.8 L193.1,243 C193.6,242.9 193.9,242.3 193.8,241.8 C193.7,241.5 193.4,241.2 193.1,241.1 L184.7,236.3 C183.6,235.8 182.4,235.8 181.4,236.3 L173,241 C172.5,241.1 172.2,241.7 172.3,242.2 C172.4,242.5 172.7,242.8 173,242.9 L181.4,247.8 Z" id="Shape" stroke="#3445DC" fill="#FFFFFF" fill-rule="nonzero" stroke-linecap="round" stroke-linejoin="round"/>
                <path d="M167.5,255.7 C168.5,256.2 169.8,256.2 170.8,255.7 L179.2,250.9 C179.7,250.7 180,250.2 179.9,249.7 C179.8,249.4 179.5,249.1 179.2,249 L170.8,244.2 C169.8,243.7 168.5,243.7 167.5,244.2 L159.1,249 C158.6,249.2 158.3,249.7 158.4,250.2 C158.5,250.5 158.8,250.8 159.1,250.9 L167.5,255.7 Z" id="Shape" stroke="#3445DC" fill="#FFFFFF" fill-rule="nonzero" stroke-linecap="round" stroke-linejoin="round"/>
                <path d="M153.5,263.9 C154.5,264.4 155.8,264.4 156.8,263.9 L165.2,259.1 C165.7,258.9 166,258.4 165.9,257.9 C165.8,257.6 165.5,257.3 165.2,257.2 L156.8,252.4 C155.8,251.9 154.5,251.9 153.5,252.4 L145.1,257.2 C144.6,257.3 144.3,257.9 144.4,258.4 C144.5,258.7 144.8,259 145.1,259.1 L153.5,263.9 Z" id="Shape" stroke="#3445DC" fill="#FFFFFF" fill-rule="nonzero" stroke-linecap="round" stroke-linejoin="round"/>
                <path d="M139.8,271.9 C140.9,272.4 142.1,272.4 143.1,271.9 L151.5,267.1 C152,267 152.3,266.4 152.2,265.9 C152.1,265.6 151.8,265.3 151.5,265.2 L143.1,260.4 C142,259.9 140.8,259.9 139.8,260.4 L131.4,265.2 C130.9,265.3 130.6,265.9 130.7,266.4 C130.8,266.7 131.1,267 131.4,267.1 L139.8,271.9 Z" id="Shape" stroke="#3445DC" fill="#FFFFFF" fill-rule="nonzero" stroke-linecap="round" stroke-linejoin="round"/>
                <path d="M126,279.8 C127.1,280.3 128.3,280.3 129.3,279.8 L137.7,275 C138.2,274.8 138.5,274.3 138.4,273.8 C138.3,273.5 138,273.2 137.7,273.1 L129.3,268.3 C128.2,267.8 127,267.8 126,268.3 L117.6,273.1 C117.1,273.3 116.8,273.8 116.9,274.3 C117,274.6 117.3,274.9 117.6,275 L126,279.8 Z" id="Shape" stroke="#3445DC" fill="#FFFFFF" fill-rule="nonzero" stroke-linecap="round" stroke-linejoin="round"/>
                <path d="M201.1,218.7 C202.2,219.2 203.4,219.2 204.4,218.7 L212.8,213.9 C213.3,213.7 213.6,213.2 213.5,212.7 C213.4,212.4 213.1,212.1 212.8,212 L204.4,207.2 C203.3,206.7 202.1,206.7 201.1,207.2 L192.7,212 C192.2,212.2 191.9,212.7 192,213.2 C192.1,213.5 192.4,213.8 192.7,213.9 L201.1,218.7 Z" id="Shape" stroke="#3445DC" fill="#FFFFFF" fill-rule="nonzero" stroke-linecap="round" stroke-linejoin="round"/>
                <path d="M187.1,226.7 C188.2,227.2 189.4,227.2 190.4,226.7 L198.8,221.9 C199.3,221.7 199.6,221.2 199.5,220.7 C199.4,220.4 199.1,220.1 198.8,220 L190.4,215.2 C189.3,214.7 188.1,214.7 187.1,215.2 L178.7,220.1 C178.2,220.3 177.9,220.8 178,221.3 C178.1,221.6 178.4,221.9 178.7,222 L187.1,226.7 Z" id="Shape" stroke="#3445DC" fill="#FFFFFF" fill-rule="nonzero" stroke-linecap="round" stroke-linejoin="round"/>
                <path d="M173.2,234.8 C174.3,235.3 175.5,235.3 176.5,234.8 L184.9,230 C185.4,229.9 185.7,229.3 185.6,228.8 C185.5,228.5 185.2,228.2 184.9,228.1 L176.5,223.3 C175.4,222.8 174.2,222.8 173.2,223.3 L164.8,228.1 C164.3,228.2 164,228.8 164.1,229.3 C164.2,229.6 164.5,229.9 164.8,230 L173.2,234.8 Z" id="Shape" stroke="#3445DC" fill="#FFFFFF" fill-rule="nonzero" stroke-linecap="round" stroke-linejoin="round"/>
                <path d="M159.3,242.8 C160.4,243.3 161.6,243.3 162.6,242.8 L171,238 C171.5,237.9 171.8,237.3 171.7,236.8 C171.6,236.5 171.3,236.2 171,236.1 L162.6,231.3 C161.5,230.8 160.3,230.8 159.3,231.3 L150.9,236.1 C150.4,236.2 150.1,236.8 150.2,237.3 C150.3,237.6 150.6,237.9 150.9,238 L159.3,242.8 Z" id="Shape" stroke="#3445DC" fill="#FFFFFF" fill-rule="nonzero" stroke-linecap="round" stroke-linejoin="round"/>
                <path d="M145.3,250.9 C146.4,251.4 147.6,251.4 148.6,250.9 L157,246.1 C157.5,245.9 157.8,245.4 157.7,244.9 C157.6,244.6 157.3,244.3 157,244.2 L148.6,239.4 C147.5,238.9 146.3,238.9 145.3,239.4 L137,244.2 C136.5,244.4 136.2,244.9 136.3,245.4 C136.4,245.7 136.7,246 137,246.1 L145.3,250.9 Z" id="Shape" stroke="#3445DC" fill="#FFFFFF" fill-rule="nonzero" stroke-linecap="round" stroke-linejoin="round"/>
                <path d="M131.4,258.9 C132.4,259.4 133.7,259.4 134.7,258.9 L143.1,254.1 C143.6,253.9 143.9,253.4 143.8,252.9 C143.7,252.6 143.4,252.3 143.1,252.2 L134.7,247.4 C133.7,246.9 132.4,246.9 131.4,247.4 L123,252.2 C122.5,252.4 122.2,252.9 122.3,253.4 C122.4,253.7 122.7,254 123,254.1 L131.4,258.9 Z" id="Shape" stroke="#3445DC" fill="#FFFFFF" fill-rule="nonzero" stroke-linecap="round" stroke-linejoin="round"/>
                <path d="M117.5,267 C118.5,267.5 119.8,267.5 120.8,267 L129.2,262.2 C129.7,262.1 130,261.5 129.9,261 C129.8,260.7 129.5,260.4 129.2,260.3 L120.8,255.5 C119.8,255 118.5,255 117.5,255.5 L109.1,260.3 C108.6,260.4 108.3,261 108.4,261.5 C108.5,261.8 108.8,262.1 109.1,262.2 L117.5,267 Z" id="Shape" stroke="#3445DC" fill="#FFFFFF" fill-rule="nonzero" stroke-linecap="round" stroke-linejoin="round"/>
                <path d="M103.5,275 C104.5,275.5 105.8,275.5 106.8,275 L115.2,270.2 C115.7,270.1 116,269.5 115.9,269 C115.8,268.7 115.5,268.4 115.2,268.3 L106.8,263.5 C105.8,263 104.5,263 103.5,263.5 L95.1,268.3 C94.6,268.4 94.3,269 94.4,269.5 C94.5,269.8 94.8,270.1 95.1,270.2 L103.5,275 Z" id="Shape" stroke="#3445DC" fill="#FFFFFF" fill-rule="nonzero" stroke-linecap="round" stroke-linejoin="round"/>
                <path d="M89.6,283.1 C90.6,283.6 91.9,283.6 92.9,283.1 L101.3,278.3 C101.8,278.2 102.1,277.6 102,277.1 C101.9,276.8 101.6,276.5 101.3,276.4 L92.9,271.6 C91.9,271.1 90.6,271.1 89.6,271.6 L81.2,276.4 C80.7,276.5 80.4,277.1 80.5,277.6 C80.6,277.9 80.9,278.2 81.2,278.3 L89.6,283.1 Z" id="Shape" stroke="#3445DC" fill="#FFFFFF" fill-rule="nonzero" stroke-linecap="round" stroke-linejoin="round"/>
                <path d="M75.6,291.1 C76.6,291.6 77.9,291.6 78.9,291.1 L87.3,286.3 C87.8,286.1 88.1,285.6 88,285.1 C87.9,284.8 87.6,284.5 87.3,284.4 L78.9,279.6 C77.9,279.1 76.6,279.1 75.6,279.6 L67.2,284.4 C66.7,284.6 66.4,285.1 66.5,285.6 C66.6,285.9 66.9,286.2 67.2,286.3 L75.6,291.1 Z" id="Shape" stroke="#3445DC" fill="#FFFFFF" fill-rule="nonzero" stroke-linecap="round" stroke-linejoin="round"/>
                <polygon id="Shape" fill="#FFFFFF" fill-rule="nonzero" points="17.9 282.3 17.9 278.7 26.6 283.7 26.6 287.3"/>
                <path d="M18.4,279.5 L26.1,284 L26.1,286.5 L18.4,282 L18.4,279.5 Z M17.4,277.8 L17.4,282.6 L27.1,288.2 L27.1,283.4 L17.4,277.8 Z" id="Shape" fill="#3445DC" fill-rule="nonzero"/>
                <polygon id="Shape" fill="#FFFFFF" fill-rule="nonzero" points="33 291 33 287.4 41.7 292.4 41.7 296"/>
                <path d="M33.5,288.3 L41.2,292.8 L41.2,295.3 L33.5,290.8 L33.5,288.3 Z M32.5,286.5 L32.5,291.3 L42.2,296.9 L42.2,292.1 L32.5,286.5 Z" id="Shape" fill="#3445DC" fill-rule="nonzero"/>
                <polygon id="Shape" fill="#3445DC" fill-rule="nonzero" points="29.3 111.2 202.6 11.1 202.6 126.5 202.6 144.3 9.2 255.9 9.2 122.8"/>
                <path d="M9.2,139.8 L202.6,28.1" id="Shape" stroke="#FFFFFF"/>
                <polygon id="Shape" stroke="#FFFFFF" points="98.6 186 30.3 225.5 30.5 146.5 98.6 107.7"/>
                <path d="M119.3,125.1 L187.3,85.9" id="Shape" stroke="#FFFFFF" stroke-linecap="round" stroke-linejoin="round"/>
                <path d="M119.3,105.5 L136.3,95.7" id="Shape" stroke="#FFFFFF"/>
                <path d="M17.4,126.4 L34.4,116.6" id="Shape" stroke="#FFFFFF" stroke-width="1.5" stroke-linecap="round" stroke-linejoin="round"/>
                <path d="M119.3,134.3 L136.3,124.5" id="Shape" stroke="#FFFFFF" stroke-linecap="round" stroke-linejoin="round"/>
                <path d="M119.3,155.4 L136.3,145.5" id="Shape" stroke="#FFFFFF" stroke-linecap="round" stroke-linejoin="round"/>
                <path d="M119.3,144.7 L170.4,115.3" id="Shape" stroke="#FFFFFF" stroke-linecap="round" stroke-linejoin="round"/>
                <path d="M119.3,166 L170.4,136.6" id="Shape" stroke="#FFFFFF" stroke-linecap="round" stroke-linejoin="round"/>
                <ellipse id="Oval" stroke="#FFFFFF" stroke-width="1.00003188" stroke-linecap="round" stroke-linejoin="round" transform="translate(191.546120, 25.211400) rotate(-68.839085) translate(-191.546120, -25.211400) " cx="191.54612" cy="25.2114" rx="4.40014027" ry="2.5000797"/>
                <path d="M6.9,114 L202.6,1 C203.8,0.4 205.2,0.3 206.5,0.8 C207,1 208.1,1.7 209.1,2.3 C209.8,2.7 210.4,3.2 210.9,3.8 C211.2,4.4 211.5,5 211.6,5.7 C211.7,6.2 211.7,6.6 211.7,7.1 L212.1,141.2 C212,143 211.6,144.7 210.9,146.3 C210.3,147.7 208,151.5 208,151.5 C209.3,151 210.7,150.7 212,150.5 C214.3,150.2 216.6,150.5 218.8,151.1 C220,151.6 221.1,152.2 222.2,152.8 L337.8,220 C337.8,220 340.7,221.6 340.7,224 C340.7,225.9 340.7,228.4 340.7,230.3 C340.6,231.9 339.8,233.5 338.4,234.4 L142.2,347.8 C140.7,348.6 139.2,349.1 137.5,349.3 C134.6,349.7 131.7,349.4 129,348.3 C127,347.3 125,346.2 123.1,344.9 L11.3,279.9 C11.3,279.9 8.4,278.2 8.4,275.9 C8.4,273.8 8.4,270.8 8.4,269.1 C8.5,268 8.9,267 9.7,266.3 C8.6,266.5 7.4,266.5 6.3,266.2 C5.1,265.7 2.4,264.2 1.7,263.1 C1,261.6 0.7,260.1 0.8,258.5 C0.8,256.5 0.8,254.6 0.8,254.6 L0.6,125 C0.7,124.2 0.8,123.4 1,122.6 C1.4,121.1 2,119.6 2.9,118.3 C3.6,117.3 4.4,116.3 5.2,115.4 C5.7,114.9 6.3,114.4 6.9,114 Z" id="Shape" stroke="#3445DC" stroke-width="2" stroke-linecap="round" stroke-linejoin="round"/>
            </g>
            <g id="Lego_Bricks" transform="translate(69.000000, 6.000000)" stroke="#000000">
                <g id="lego_brick" transform="translate(222.000000, 74.000000)">
                    <polygon id="Shape" fill="#FFFFFF" fill-rule="nonzero" stroke-linecap="round" stroke-linejoin="round" points="17.1 50 51.1 30.4 51.1 10.8 17.1 30.4"/>
                    <polygon id="Shape" fill="#FFFFFF" fill-rule="nonzero" stroke-linecap="round" stroke-linejoin="round" points="17.1 50 0.1 40.2 0.1 20.6 17.1 30.4"/>
                    <polygon id="Shape" fill="#FFFFFF" fill-rule="nonzero" stroke-linecap="round" stroke-linejoin="round" points="51.1 10.8 34.1 0.9 0.1 20.6 17.1 30.4"/>
                    <path d="M11.4,20.6 C11.4,22.5 14,24 17.1,24 C20.2,24 22.8,22.5 22.8,20.6" id="Shape" stroke-linecap="round" stroke-linejoin="round"/>
                    <ellipse id="Oval" stroke-linecap="round" stroke-linejoin="round" cx="17.1" cy="17.6" rx="5.7" ry="3.4"/>
                    <path d="M22.9,17.6 L22.9,20.6" id="Shape" stroke-linejoin="round"/>
                    <path d="M11.4,17.6 L11.4,20.6" id="Shape" stroke-linejoin="round"/>
                    <path d="M28.4,10.7 C28.4,12.6 31,14.1 34.1,14.1 C37.2,14.1 39.8,12.6 39.8,10.7" id="Shape" stroke-linecap="round" stroke-linejoin="round"/>
                    <ellipse id="Oval" stroke-linecap="round" stroke-linejoin="round" cx="34.1" cy="7.7" rx="5.7" ry="3.4"/>
                    <path d="M39.9,7.7 L39.9,10.7" id="Shape" stroke-linejoin="round"/>
                    <path d="M28.4,7.7 L28.4,10.7" id="Shape" stroke-linejoin="round"/>
                    <polygon id="Shape" points="17.1 50 17.1 30.4 51.1 10.8 51.1 30.4"/>
                    <polygon id="Shape" stroke-width="1.5" stroke-linecap="round" stroke-linejoin="round" points="0.1 40.2 0.1 20.6 34.1 0.9 51.1 10.8 51.1 30.4 17.1 50"/>
                </g>
                <g id="lego_brick-2" transform="translate(0.000000, 5.000000)">
                    <polygon id="Shape" fill="#FFFFFF" fill-rule="nonzero" stroke-linecap="round" stroke-linejoin="round" points="34.3 49.4 0.3 29.8 0.3 10.2 34.3 29.8"/>
                    <polygon id="Shape" fill="#FFFFFF" fill-rule="nonzero" stroke-linecap="round" stroke-linejoin="round" points="34.3 49.4 51.3 39.6 51.3 20 34.3 29.8"/>
                    <polygon id="Shape" fill="#FFFFFF" fill-rule="nonzero" stroke-linecap="round" stroke-linejoin="round" points="0.3 10.2 17.3 0.3 51.3 20 34.3 29.8"/>
                    <path d="M40,20 C40,21.9 37.4,23.4 34.3,23.4 C31.2,23.4 28.6,21.9 28.6,20" id="Shape" stroke-linecap="round" stroke-linejoin="round"/>
                    <ellipse id="Oval" stroke-linecap="round" stroke-linejoin="round" cx="34.3" cy="17" rx="5.7" ry="3.4"/>
                    <path d="M28.6,17 L28.6,20" id="Shape" stroke-linejoin="round"/>
                    <path d="M40,17 L40,20" id="Shape" stroke-linejoin="round"/>
                    <path d="M23,10.1 C23,12 20.4,13.5 17.3,13.5 C14.2,13.5 11.6,12 11.6,10.1" id="Shape" stroke-linecap="round" stroke-linejoin="round"/>
                    <ellipse id="Oval" stroke-linecap="round" stroke-linejoin="round" cx="17.3" cy="7.1" rx="5.7" ry="3.4"/>
                    <path d="M11.6,7.1 L11.6,10.1" id="Shape" stroke-linejoin="round"/>
                    <path d="M23,7.1 L23,10.1" id="Shape" stroke-linejoin="round"/>
                    <polygon id="Shape" points="34.3 49.4 34.3 29.8 51.3 20 51.3 39.6"/>
                    <polygon id="Shape" stroke-width="1.5" stroke-linecap="round" stroke-linejoin="round" points="0.3 29.8 0.3 10.2 17.3 0.3 51.3 20 51.3 39.6 34.3 49.4"/>
                </g>
                <g id="lego_brick-3" transform="translate(74.000000, 123.000000)">
                    <polygon id="Shape" fill="#FFFFFF" fill-rule="nonzero" stroke-linecap="round" stroke-linejoin="round" points="17.6 40.2 0.6 30.3 0.6 10.6 17.6 20.6"/>
                    <polygon id="Shape" fill="#FFFFFF" fill-rule="nonzero" stroke-linecap="round" stroke-linejoin="round" points="17.6 40.1 34.6 30.3 34.6 10.7 17.6 20.5"/>
                    <polygon id="Shape" fill="#FFFFFF" fill-rule="nonzero" stroke-linecap="round" stroke-linejoin="round" points="0.6 10.6 17.6 0.8 34.6 10.6 17.6 20.4"/>
                    <path d="M23.3,10.6 C23.3,12.5 20.7,14 17.6,14 C14.5,14 11.9,12.5 11.9,10.6" id="Shape" stroke-linecap="round" stroke-linejoin="round"/>
                    <ellipse id="Oval" stroke-linecap="round" stroke-linejoin="round" cx="17.6" cy="7.6" rx="5.7" ry="3.4"/>
                    <path d="M11.9,7.6 L11.9,10.6" id="Shape" stroke-linejoin="round"/>
                    <path d="M23.3,7.6 L23.3,10.6" id="Shape" stroke-linejoin="round"/>
                    <polygon id="Shape" points="17.6 40.1 17.6 20.4 34.6 10.6 34.6 30.3"/>
                    <polygon id="Shape" stroke-width="1.5" stroke-linecap="round" stroke-linejoin="round" points="0.6 30.3 0.6 10.6 17.6 0.8 34.6 10.6 34.6 30.3 17.6 40.1"/>
                </g>
                <g id="lego_brick-4" transform="translate(120.000000, 0.000000)">
                    <polygon id="Shape" fill="#FFFFFF" fill-rule="nonzero" stroke-linecap="round" stroke-linejoin="round" points="17.6 39.5 0.6 29.6 0.6 10 17.6 19.9"/>
                    <polygon id="Shape" fill="#FFFFFF" fill-rule="nonzero" stroke-linecap="round" stroke-linejoin="round" points="17.6 39.5 34.6 29.7 34.6 10 17.6 19.8"/>
                    <polygon id="Shape" fill="#FFFFFF" fill-rule="nonzero" stroke-linecap="round" stroke-linejoin="round" points="0.6 10 17.6 0.2 34.6 10 17.6 19.8"/>
                    <path d="M23.4,10 C23.4,11.9 20.8,13.4 17.7,13.4 C14.6,13.4 12,11.9 12,10" id="Shape" stroke-linecap="round" stroke-linejoin="round"/>
                    <ellipse id="Oval" stroke-linecap="round" stroke-linejoin="round" cx="17.6" cy="7" rx="5.7" ry="3.4"/>
                    <path d="M11.9,7 L11.9,10" id="Shape" stroke-linejoin="round"/>
                    <path d="M23.4,7 L23.4,10" id="Shape" stroke-linejoin="round"/>
                    <polygon id="Shape" points="17.6 39.5 17.6 19.8 34.6 10 34.6 29.7"/>
                    <polygon id="Shape" stroke-width="1.5" stroke-linecap="round" stroke-linejoin="round" points="0.6 29.6 0.6 10 17.6 0.2 34.6 10 34.6 29.7 17.6 39.5"/>
                </g>
            </g>
            <g id="Pencil" transform="translate(451.000000, 229.000000)">
                <polygon id="Shape" stroke="#3445DC" stroke-width="1.5" stroke-linecap="round" stroke-linejoin="round" points="4.5 0.4 113.8 63.5 115.6 64.9 123.5 73.5 113 71.6 111 70.8 1.7 7.7 0.3 5.7 1.7 2"/>
                <polyline id="Shape" stroke="#3445DC" stroke-width="0.5" stroke-linecap="round" stroke-linejoin="round" points="0.3 5.7 109.8 68.9 123.5 73.5 110.5 64.8 1.7 2"/>
                <path d="M114.2,63.8 C114.2,63.8 114.5,64.5 113.6,65 C112.7,65.3 111.8,65.3 110.9,65.1 C111.5,65.8 111.7,66.7 111.5,67.6 C111.1,68.9 109.5,68.7 109.5,68.7 C110.3,69.1 110.9,69.6 111.4,70.3 C111.6,70.7 111.4,70.9 111.4,70.9" id="Shape" stroke="#3445DC" stroke-linecap="round" stroke-linejoin="round"/>
                <polygon id="Shape" fill="#3445DC" fill-rule="nonzero" points="119.1 72.7 120.7 70.5 123.5 73.5"/>
            </g>
        </g>
    </g>
</svg>